HIERARCHY
ROOT hip
{
	OFFSET 0.000000 0.000000 0.000000 
	CHANNELS 6 Xposition Yposition Zposition Xrotation Zrotation Yrotation
	JOINT abdomen
	{
		OFFSET 0.000000 3.402643 0.000000 
		CHANNELS 3 Xrotation Zrotation Yrotation
		JOINT chest
		{
			OFFSET 0.000000 8.438565 -0.680529 
			CHANNELS 3 Xrotation Zrotation Yrotation
			JOINT neck
			{
				OFFSET 0.000000 10.207942 -0.272212 
				CHANNELS 3 Xrotation Zrotation Yrotation
				JOINT head
				{
					OFFSET 0.000000 3.130431 0.000000 
					CHANNELS 3 Xrotation Zrotation Yrotation
					End Site
					{
						OFFSET 0.000000 3.130435 0.000000 
					}
				}
			}
			JOINT lCollar
			{
				OFFSET 3.470700 6.669187 -0.816635 
				CHANNELS 3 Yrotation Zrotation Xrotation
				JOINT lShldr
				{
					OFFSET 3.198488 0.000000 0.000000 
					CHANNELS 3 Zrotation Yrotation Xrotation
					JOINT lForeArm
					{
						OFFSET 10.139888 0.000000 0.000000 
						CHANNELS 3 Yrotation Zrotation Xrotation
						JOINT lHand
						{
							OFFSET 8.370511 0.000000 0.000000 
							CHANNELS 3 Zrotation Yrotation Xrotation
							End Site
							{
								OFFSET 4.083176 0.000000 0.000000 
							}
						}
					}
				}
			}
			JOINT rCollar
			{
				OFFSET -3.470700 6.669187 -0.816635 
				CHANNELS 3 Yrotation Zrotation Xrotation
				JOINT rShldr
				{
					OFFSET -3.198488 0.000000 0.000000 
					CHANNELS 3 Zrotation Yrotation Xrotation
					JOINT rForeArm
					{
						OFFSET -10.139888 0.000000 0.000000 
						CHANNELS 3 Yrotation Zrotation Xrotation
						JOINT rHand
						{
							OFFSET -8.370511 0.000000 0.000000 
							CHANNELS 3 Zrotation Yrotation Xrotation
							End Site
							{
								OFFSET -4.083176 0.000000 0.000000 
							}
						}
					}
				}
			}
		}
	}
	JOINT lThigh
	{
		OFFSET 5.308129 -1.633274 1.361059 
		CHANNELS 3 Xrotation Zrotation Yrotation
		JOINT lShin
		{
			OFFSET -2.041588 -20.007561 0.000000 
			CHANNELS 3 Xrotation Zrotation Yrotation
			JOINT lFoot
			{
				OFFSET 0.000000 -19.190928 -1.224953 
				CHANNELS 3 Xrotation Yrotation Zrotation
				End Site
				{
					OFFSET 0.000000 -2.449906 4.627600 
				}
			}
		}
	}
	JOINT rThigh
	{
		OFFSET -5.308129 -1.633274 1.361059 
		CHANNELS 3 Xrotation Zrotation Yrotation
		JOINT rShin
		{
			OFFSET 2.041588 -20.007561 0.000000 
			CHANNELS 3 Xrotation Zrotation Yrotation
			JOINT rFoot
			{
				OFFSET 0.000000 -19.190928 -1.224953 
				CHANNELS 3 Xrotation Yrotation Zrotation
				End Site
				{
					OFFSET 0.000000 -2.449906 4.627600 
				}
			}
		}
	}
}
MOTION
Frames: 15
Frame Time: 0.033333
0.652535 49.945358 3.937339 -0.373209 0.302727 -0.400385 0.000000 0.000000 0.000000 -4.620574 -0.400388 0.205073 5.098855 0.097649 0.703141 4.458526 0.537082 0.576238 1.042168 9.689528 -3.745272 -9.239328 -0.298098 -18.599649 0.580471 -7.011939 16.302588 3.008011 -0.704945 -3.547439 0.345979 -9.943947 -3.657054 9.847179 -9.618360 -8.357348 -0.057230 2.266286 7.134128 -0.125807 4.081775 -3.407897 7.555953 8.366784 4.548501 -2.192534 -2.707899 4.882603 -3.700679 0.160354 -5.251548 6.150173 -10.475536 -6.580870 -0.904463 3.632807 -7.568014 -2.790541 -0.137563 4.898324 
0.641455 49.956047 3.889506 -0.235337 0.332030 -0.166013 0.000000 0.000000 0.000000 -4.679732 -0.488277 0.234366 5.049327 0.048826 0.585946 4.838918 0.742171 0.380954 0.861361 9.544488 -3.774264 -12.196177 -1.241550 -21.030745 0.269810 -5.602815 14.227170 3.344066 0.824112 -3.531883 0.002094 -9.609999 -3.732611 12.637199 -9.237492 -12.022001 0.104296 0.818854 3.652659 0.325645 4.587688 -3.361162 7.360759 8.338243 4.504366 -2.332554 -2.720806 4.774453 -3.422811 0.155605 -5.227862 6.062368 -10.475898 -6.608517 -1.042187 3.694155 -7.793990 -2.696523 -0.128948 4.700203 
0.625099 49.952145 3.808853 -0.125994 0.312499 0.175832 0.000000 0.000000 0.000000 -4.571394 -0.488280 0.126949 4.813975 -0.068358 0.400390 4.661079 0.624993 0.263763 0.398987 8.928238 -3.638089 -15.743475 -2.145260 -24.302929 0.067663 -3.850787 12.126417 3.120131 1.279745 -3.518803 -0.190219 -8.549997 -3.643305 15.479999 -8.815676 -15.578017 0.259870 -0.267420 -0.820295 -0.174574 5.751700 -3.388244 7.105679 8.405593 4.462793 -2.397162 -2.677609 4.464457 -3.314836 0.140852 -5.242768 5.878094 -10.429165 -6.528980 -0.836563 3.691957 -8.081935 -2.792596 -0.154122 4.975960 
0.611008 49.948502 3.728981 -0.055598 0.351550 0.488332 0.000000 0.000000 0.000000 -4.198730 -0.478515 -0.058673 4.169023 -0.292967 0.175779 2.676049 0.068359 0.224621 -0.589719 7.251369 -3.228966 -19.024096 -2.610569 -27.802238 0.449545 -2.121679 10.417722 3.062959 0.150577 -3.541933 0.021129 -6.505794 -3.262223 17.644888 -8.470829 -17.629076 -0.046861 -0.750555 -4.316675 -1.155051 7.572021 -3.462793 6.878017 8.421498 4.394980 -2.401798 -2.672915 3.956411 -3.271497 0.141158 -5.083599 5.769469 -10.418200 -6.505523 -0.865386 3.652427 -8.493147 -2.699896 -0.176921 5.039018 
0.601584 49.952770 3.650298 -0.084096 0.371074 0.585988 0.000000 0.000000 0.000000 -3.494831 -0.322263 -0.224661 2.881073 -0.625000 -0.019637 -0.169761 -0.878898 0.244112 -2.215757 3.831959 -2.533358 -22.132786 0.209754 -28.666761 -5.180690 -1.728363 8.024856 3.497386 -0.547029 -3.555394 1.024966 -3.310775 -2.562313 19.803875 -11.133391 -18.331310 5.408067 -0.964125 -5.911086 -1.593423 7.702592 -3.494667 6.820666 8.403746 4.372521 -2.420485 -2.690834 3.792217 -3.141088 0.133881 -4.905163 5.757670 -10.413477 -6.495100 -0.984695 3.639434 -8.657416 -2.505916 -0.145631 4.827583 
0.613045 49.950897 3.548866 -0.124347 0.283191 0.527386 0.000000 0.000000 0.000000 -2.822136 -0.019531 -0.380863 1.163849 -0.927733 -0.107566 -1.769601 -1.728475 0.390742 -4.602261 -0.280585 -1.976073 -25.475384 5.468297 -26.924267 -14.186427 -1.873703 6.910656 4.092748 -0.518388 -3.581055 3.016321 0.471136 -1.999290 22.433060 -15.687433 -18.126209 13.575551 -1.147584 -4.660489 -2.129326 5.957438 -3.544404 6.774705 8.474018 4.430285 -2.435888 -2.707386 3.969819 -3.093164 0.133990 -4.872731 5.630492 -10.325912 -6.402677 -0.885364 3.624275 -8.542715 -2.480076 -0.162099 4.736333 
0.632417 49.948502 3.462392 -0.126148 0.214842 0.214879 0.000000 0.000000 0.000000 -2.500919 0.117184 -0.449218 -0.524048 -1.074214 -0.175933 -1.695655 -1.455065 0.244062 -6.168153 -2.288545 -1.787904 -30.349604 8.157470 -23.688086 -18.067158 -2.779809 7.805444 3.492860 -0.154872 -3.560914 5.356086 3.362845 -1.860937 25.650864 -18.006720 -16.303394 16.253567 -0.731052 -2.606183 -2.352283 4.103605 -3.550045 6.753475 8.560949 4.540357 -2.486161 -2.805393 4.269686 -2.918163 0.123108 -5.043225 5.465351 -10.287991 -6.325129 -0.963018 3.633780 -8.372734 -2.296458 -0.101368 4.547637 
0.644224 49.946873 3.398304 -0.098322 0.195311 -0.195311 0.000000 0.000000 0.000000 -2.461417 0.087889 -0.312500 -1.731999 -1.083966 -0.332157 -1.267194 -0.527339 -0.253985 -6.612413 -3.045444 -1.797457 -35.579445 8.361873 -19.283888 -18.854532 -4.044034 12.004172 -1.216273 0.543562 -3.430032 7.056878 5.159941 -1.976503 29.706350 -18.644457 -13.389713 16.395842 0.155164 0.693266 -1.296555 2.837161 -3.488000 6.761478 8.577938 4.621977 -2.543059 -2.882965 4.588940 -2.860491 0.115564 -5.129738 5.253054 -10.312145 -6.273300 -0.975249 3.667920 -8.091160 -2.112000 -0.118986 4.443309 
0.629474 49.954288 3.340886 0.047330 0.175775 -0.488279 0.000000 0.000000 0.000000 -2.715007 0.068359 -0.136719 -2.354064 -1.103477 -0.478615 -1.564594 0.166002 -0.722653 -7.364362 -4.367602 -2.127913 -39.562904 8.134565 -15.379046 -18.514374 -4.783106 22.224228 -8.714338 -0.178688 -3.163750 8.277679 6.647839 -2.356544 33.425072 -19.350187 -9.579304 17.496332 1.379353 4.181454 1.470452 2.268302 -3.348483 6.619399 8.630980 4.666746 -2.544478 -2.923129 4.815172 -2.796875 0.104383 -5.038391 4.959695 -10.272747 -6.183280 -0.985095 3.658360 -7.935424 -1.995879 -0.136848 4.255882 
0.581760 49.962959 3.317747 0.134921 0.146473 -0.703123 0.000000 0.000000 0.000000 -2.919909 0.078125 0.009779 -3.066910 -1.044881 -0.507906 -1.547857 0.322229 -0.869127 -8.044543 -5.746238 -2.440048 -43.285824 7.788905 -12.273132 -19.150248 -5.398009 30.520912 -13.220935 -1.136987 -2.913007 9.423197 8.204221 -2.728544 36.777500 -20.488430 -7.075363 20.381893 2.045823 8.025388 3.959576 2.068068 -3.241943 6.579179 8.718702 4.697380 -2.578025 -2.917375 4.846208 -2.703835 0.113136 -5.159790 4.774343 -10.184300 -6.080442 -0.994465 3.666775 -7.887496 -1.932418 -0.139299 4.054402 
0.511119 49.959316 3.314342 0.066840 0.107411 -0.810546 0.000000 0.000000 0.000000 -2.958850 0.087891 0.087906 -3.626001 -0.908178 -0.429788 -1.582928 0.068353 -0.751953 -8.586646 -6.827621 -2.578939 -47.181377 7.440931 -9.653194 -21.271236 -6.364201 31.265509 -12.538839 0.407142 -3.121295 10.387468 9.752875 -2.958445 40.070343 -21.395182 -5.895904 23.690571 2.352454 10.423913 3.737186 2.025529 -3.242254 6.723755 8.843657 4.773817 -2.612748 -2.883281 4.622645 -2.703820 0.134369 -5.435662 4.743212 -10.102766 -6.051376 -0.826848 3.721244 -7.837840 -2.036439 -0.119157 4.147833 
0.395581 49.962856 3.303596 0.011869 -0.156236 -0.771508 0.000000 0.000000 0.000000 -2.997907 0.273437 0.029343 -3.979246 -0.771467 -0.380956 -1.686128 -0.361313 -0.527395 -9.162842 -7.423796 -2.666220 -51.172848 6.981501 -7.116629 -23.658686 -7.226707 28.927511 -9.253041 2.827564 -3.443168 10.832481 11.007562 -3.154107 43.072186 -22.033573 -3.647379 27.449038 3.096835 8.123012 1.639622 1.887074 -3.353899 6.815581 9.297045 5.148415 -2.597853 -2.908456 3.890366 -2.769553 0.125281 -5.609061 4.753746 -9.724300 -5.812257 -0.760495 3.706448 -7.969334 -2.136009 -0.095287 4.295380 
0.260159 49.970264 3.307728 -0.083087 -0.380829 -0.722705 0.000000 0.000000 0.000000 -3.009280 0.478513 -0.175775 -4.118430 -0.624994 -0.244233 -1.717841 -0.888671 -0.058738 -9.506557 -7.906988 -2.725075 -54.842747 6.494765 -4.469939 -26.433405 -7.888898 27.422626 -6.773947 3.659052 -3.523930 10.928315 12.058475 -3.333528 45.513416 -22.490259 -1.851042 31.256567 3.151327 9.068013 0.904963 1.228006 -3.407979 6.947989 9.662200 5.455155 -2.538478 -2.867854 3.415660 -2.877900 0.170169 -5.740300 4.812443 -9.361762 -5.625117 -0.603489 3.666608 -7.957348 -2.295216 -0.125765 4.232646 
0.111257 49.968754 3.301117 -0.159065 -0.468698 -0.849661 0.000000 0.000000 0.000000 -3.109663 0.585922 -0.410135 -3.866928 -0.507813 -0.029382 -1.874449 -1.201136 0.439357 -9.739566 -8.183227 -2.822876 -58.170322 6.114605 -1.769865 -29.106661 -8.385024 26.918554 -5.739187 2.992967 -3.474943 10.937179 12.703591 -3.508176 47.928696 -22.778515 -0.703849 34.278488 3.117538 11.785789 0.273912 0.163200 -3.436721 7.058541 9.880670 5.573922 -2.528332 -2.769776 3.430756 -2.937790 0.143986 -5.941821 4.784158 -9.130485 -5.510345 -0.495048 3.740019 -7.999929 -2.354320 -0.096706 4.003038 
-0.068583 49.963867 3.292439 -0.163997 -0.576051 -1.172012 0.000000 0.000000 0.000000 -3.277397 0.722632 -0.468713 -3.634176 -0.380857 0.205074 -1.465540 -1.464704 0.791256 -9.880955 -8.065822 -2.956575 -61.025253 5.525297 1.369583 -31.255878 -8.969990 27.058458 -7.116174 1.826876 -3.364859 10.810073 12.773771 -3.658925 50.783222 -23.031834 0.015748 36.766064 3.127552 11.044406 -0.520603 -0.608929 -3.480795 7.165849 10.134687 5.757724 -2.507046 -2.699930 3.602634 -2.943684 0.164041 -6.355469 4.734649 -8.845070 -5.350343 -0.576000 3.796510 -7.811494 -2.323768 -0.116253 3.721189 
